<svg width="123" height="34" viewBox="0 0 123 34" fill="none" xmlns="http://www.w3.org/2000/svg">
<path d="M17.0532 17.9058C17.0532 20.8436 16.215 23.0938 14.5386 24.6562C12.8703 26.2188 10.4574 27 7.2998 27H2.24609V9.15332H7.84912C10.7625 9.15332 13.0249 9.92236 14.6362 11.4604C16.2476 12.9985 17.0532 15.147 17.0532 17.9058ZM13.1226 18.0034C13.1226 14.1704 11.4299 12.2539 8.04443 12.2539H6.03027V23.875H7.65381C11.2996 23.875 13.1226 21.9178 13.1226 18.0034ZM20.3003 9.82471C20.3003 8.61214 20.9757 8.00586 22.3267 8.00586C23.6776 8.00586 24.353 8.61214 24.353 9.82471C24.353 10.4025 24.1821 10.8542 23.8403 11.1797C23.5067 11.4971 23.0021 11.6558 22.3267 11.6558C20.9757 11.6558 20.3003 11.0454 20.3003 9.82471ZM24.1821 27H20.459V13.3525H24.1821V27ZM31.3477 27L26.1475 13.3525H30.0415L32.6782 21.1284C32.9712 22.1131 33.1543 23.0449 33.2275 23.9238H33.3008C33.3415 23.1426 33.5246 22.2108 33.8501 21.1284L36.4746 13.3525H40.3687L35.1685 27H31.3477ZM47.9858 15.7451C47.1965 15.7451 46.578 15.9974 46.1304 16.502C45.6828 16.9984 45.4264 17.7064 45.3613 18.626H50.5859C50.5697 17.7064 50.3296 16.9984 49.8657 16.502C49.4019 15.9974 48.7752 15.7451 47.9858 15.7451ZM48.5107 27.2441C46.3135 27.2441 44.5964 26.6379 43.3594 25.4253C42.1224 24.2127 41.5039 22.4956 41.5039 20.2739C41.5039 17.9871 42.0736 16.2212 43.2129 14.9761C44.3604 13.7228 45.9432 13.0962 47.9614 13.0962C49.8901 13.0962 51.3916 13.6455 52.4658 14.7441C53.54 15.8428 54.0771 17.3605 54.0771 19.2974V21.104H45.2759C45.3166 22.1619 45.6299 22.988 46.2158 23.582C46.8018 24.1761 47.6237 24.4731 48.6816 24.4731C49.5036 24.4731 50.2808 24.3877 51.0132 24.2168C51.7456 24.0459 52.5106 23.7733 53.3081 23.3989V26.2798C52.6571 26.6053 51.9613 26.8454 51.2207 27C50.4801 27.1628 49.5768 27.2441 48.5107 27.2441ZM64.7217 13.0962C65.2262 13.0962 65.6453 13.1328 65.979 13.2061L65.6982 16.6973C65.3971 16.6159 65.0309 16.5752 64.5996 16.5752C63.4115 16.5752 62.4837 16.8804 61.8164 17.4907C61.1572 18.1011 60.8276 18.9556 60.8276 20.0542V27H57.1045V13.3525H59.9243L60.4736 15.6475H60.6567C61.0799 14.8825 61.6496 14.2681 62.3657 13.8042C63.09 13.3322 63.8753 13.0962 64.7217 13.0962ZM80.3345 13.3525V15.2446L78.1982 15.7939C78.5889 16.4043 78.7842 17.0879 78.7842 17.8447C78.7842 19.3096 78.2715 20.453 77.2461 21.2749C76.2288 22.0887 74.8128 22.4956 72.998 22.4956L72.3267 22.459L71.7773 22.3979C71.3949 22.6909 71.2036 23.0164 71.2036 23.3745C71.2036 23.9116 71.8872 24.1802 73.2544 24.1802H75.5737C77.0711 24.1802 78.2104 24.5016 78.9917 25.1445C79.7811 25.7874 80.1758 26.7314 80.1758 27.9766C80.1758 29.5716 79.5085 30.8086 78.1738 31.6875C76.8473 32.5664 74.939 33.0059 72.4487 33.0059C70.5444 33.0059 69.0877 32.6722 68.0786 32.0049C67.0776 31.3457 66.5771 30.418 66.5771 29.2217C66.5771 28.3997 66.8335 27.7121 67.3462 27.1587C67.8589 26.6053 68.6117 26.2106 69.6045 25.9746C69.222 25.8118 68.8883 25.5474 68.6035 25.1812C68.3187 24.8068 68.1763 24.4121 68.1763 23.9971C68.1763 23.4762 68.3268 23.0449 68.6279 22.7031C68.929 22.3532 69.3644 22.0114 69.9341 21.6777C69.2179 21.3685 68.6483 20.8721 68.2251 20.1885C67.8101 19.5049 67.6025 18.6992 67.6025 17.7715C67.6025 16.2822 68.0868 15.1307 69.0552 14.3169C70.0236 13.5031 71.4071 13.0962 73.2056 13.0962C73.5881 13.0962 74.0397 13.1328 74.5605 13.2061C75.0895 13.2712 75.4272 13.32 75.5737 13.3525H80.3345ZM69.7998 28.9287C69.7998 29.4414 70.0439 29.8442 70.5322 30.1372C71.0286 30.4302 71.7204 30.5767 72.6074 30.5767C73.9421 30.5767 74.9878 30.3936 75.7446 30.0273C76.5015 29.6611 76.8799 29.1606 76.8799 28.5259C76.8799 28.0132 76.6561 27.6592 76.2085 27.4639C75.7609 27.2686 75.0692 27.1709 74.1333 27.1709H72.2046C71.521 27.1709 70.9473 27.3296 70.4834 27.647C70.0277 27.9725 69.7998 28.3997 69.7998 28.9287ZM71.1548 17.8203C71.1548 18.5609 71.3216 19.1468 71.6553 19.5781C71.9971 20.0094 72.5138 20.2251 73.2056 20.2251C73.9054 20.2251 74.4181 20.0094 74.7437 19.5781C75.0692 19.1468 75.2319 18.5609 75.2319 17.8203C75.2319 16.1764 74.5565 15.3545 73.2056 15.3545C71.8384 15.3545 71.1548 16.1764 71.1548 17.8203ZM88.2446 15.7451C87.4552 15.7451 86.8368 15.9974 86.3892 16.502C85.9416 16.9984 85.6852 17.7064 85.6201 18.626H90.8447C90.8285 17.7064 90.5884 16.9984 90.1245 16.502C89.6606 15.9974 89.034 15.7451 88.2446 15.7451ZM88.7695 27.2441C86.5723 27.2441 84.8551 26.6379 83.6182 25.4253C82.3812 24.2127 81.7627 22.4956 81.7627 20.2739C81.7627 17.9871 82.3324 16.2212 83.4717 14.9761C84.6191 13.7228 86.202 13.0962 88.2202 13.0962C90.1489 13.0962 91.6504 13.6455 92.7246 14.7441C93.7988 15.8428 94.3359 17.3605 94.3359 19.2974V21.104H85.5347C85.5754 22.1619 85.8887 22.988 86.4746 23.582C87.0605 24.1761 87.8825 24.4731 88.9404 24.4731C89.7624 24.4731 90.5396 24.3877 91.272 24.2168C92.0044 24.0459 92.7694 23.7733 93.5669 23.3989V26.2798C92.9159 26.6053 92.2201 26.8454 91.4795 27C90.7389 27.1628 89.8356 27.2441 88.7695 27.2441ZM109.961 27H106.238V19.0288C106.238 18.0441 106.063 17.3076 105.713 16.8193C105.363 16.3229 104.806 16.0747 104.041 16.0747C102.999 16.0747 102.246 16.4246 101.782 17.1245C101.318 17.8162 101.086 18.9678 101.086 20.5791V27H97.3633V13.3525H100.208L100.708 15.0981H100.916C101.331 14.439 101.9 13.9425 102.625 13.6089C103.357 13.2671 104.187 13.0962 105.115 13.0962C106.702 13.0962 107.906 13.5275 108.728 14.3901C109.55 15.2446 109.961 16.4816 109.961 18.1011V27ZM119.543 24.2778C120.194 24.2778 120.976 24.1354 121.887 23.8506V26.6216C120.959 27.0366 119.82 27.2441 118.469 27.2441C116.98 27.2441 115.894 26.8698 115.21 26.1211C114.535 25.3643 114.197 24.2331 114.197 22.7275V16.1479H112.415V14.5732L114.465 13.3281L115.54 10.4473H117.92V13.3525H121.741V16.1479H117.92V22.7275C117.92 23.2565 118.066 23.6471 118.359 23.8994C118.66 24.1517 119.055 24.2778 119.543 24.2778Z" fill="white"/>
</svg>
